# xmcd
#
# Track frame offsets: 
#        182
#        13925
#        30520
#        44970
#        68657
#        90227
#        101550
#        123150
#        137980
#        156982
#        171132
#        189767
#        202722
#        219300
#        235715
#        251865
#        270317
#        295067
#        308192
#        322530
#
# Disc length: 4543 seconds
#
# Revision: 6
# Processed by: cddbd v1.5.2PL0 Copyright (c) Steve Scherf et al.
# Submitted via: ExactAudioCopyFreeDBPlugin 1.0
#
DISCID=0911bd14
DTITLE=John Denver - The Best Of The Rocky Mountain Collection
DYEAR=2000
DGENRE=Country
TTITLE0=Annie's Song (08.03.1974)
TTITLE1=Leaving, On A Jet Plane (29.05.1969)
TTITLE2=Take Me Home Country Roads (1971)
TTITLE3=Sunshine On My Shoulders (1971)
TTITLE4=Rocky Mountain High (12.04.1972)
TTITLE5=Follow Me (05.11.1969)
TTITLE6=Back Home Again (1974)
TTITLE7=Rhymes and Reasons (28.05.1969)
TTITLE8=Fly Away (04.07.1975)
TTITLE9=Starwood In Aspen (13.09.1971)
TTITLE10=Poems, Prayers And Promises (09.02.1971)
TTITLE11=This Old Guitar (21.03.1974)
TTITLE12=Goodbye Again (10.04.1972)
TTITLE13=Calypso (02.07.1975)
TTITLE14=I'm Sorry (04.07.1975)
TTITLE15=Farewell Andromeda (Welcome To My Morning) (12.03.1973)
TTITLE16=Sweet Surrender (09.03.1974)
TTITLE17=Love Again (3-1986)
TTITLE18=Thank God I'm A Country Boy (08.03.1974)
TTITLE19=Wild Montana Skies (Duet With Emmylou Harris) (18.03.1983)
EXTD=Digitally Remastered By Andy Pearec At Masterpiece Studios,\nLond
EXTD=on 2000
EXTT0=
EXTT1=
EXTT2=
EXTT3=
EXTT4=
EXTT5=
EXTT6=
EXTT7=
EXTT8=
EXTT9=
EXTT10=
EXTT11=
EXTT12=
EXTT13=
EXTT14=
EXTT15=
EXTT16=
EXTT17=
EXTT18=
EXTT19=
PLAYORDER=
